<svg version="1" xmlns="http://www.w3.org/2000/svg" width="666.667" height="666.667" viewBox="0 0 500.000000 500.000000"><path d="M206.5 70.1c-15.9 2.3-34.9 8.7-49 16.4-23.3 12.7-46.2 34.8-58 56-2.4 4.3-4.4 6.7-5.8 6.9-1.2.3-5 1-8.5 1.6-14 2.5-30.6 9.3-43.4 17.9-6.4 4.3-7.6 5.6-9.1 9.8C27.2 194 36.2 208 51.5 208c5 0 10.9-2.1 14-5 3.6-3.4 16.2-8.9 24.6-11 4.6-1.1 14-2.3 21.1-2.6l12.7-.7 1.7-5.1c2.8-8.6 10-21.9 16.3-30.3C182 100.1 259 94.8 306.1 141.9c14.1 14 24.6 32.5 29.2 51.3 1.5 5.9 3.6 25.2 3.7 32.9v2.6l19.3.6c28.8.8 38.1 4.1 52.2 18.2C422.9 259.8 428 272 428 289c0 15.4-4.9 28.3-15.2 39.4-11.3 12.4-22.4 17.7-41.6 20-13 1.5-16.4 2.8-21 8-5.3 6.1-6.4 15.4-2.7 22.6 2.1 4 8 8.8 12.3 10 4.8 1.2 24.9-.2 33.7-2.5 28.9-7.5 52.5-26.6 65.5-53 6.9-14 9.1-23 9.7-39.8.6-15.5-.5-24.9-4.4-36.6-11.4-34-42.1-60.6-76.3-66.1-4.1-.6-8.4-1.3-9.5-1.5-1.6-.3-2.5-2.2-4.2-9-11.5-44.6-43.9-81.9-86.8-100.1-11.2-4.8-25.2-8.7-36.9-10.3-9-1.3-35.4-1.3-44.1 0z"/><path d="M80.3 311c-1.8.4-3.3.5-3.3.3 0-.3-.7 0-1.5.7s-1.5 1-1.5.6-1.8.3-4 1.4c-2.2 1.1-4 1.8-4 1.5 0-.3-2.8 1.3-6.2 3.7-14.7 9.9-22.9 21.8-26.3 37.8-1.9 8.9-1.9 16.9-.1 23.8.8 2.9 1.5 5.5 1.5 5.7.2 2.3 2.6 8.5 3.3 8.5.4 0 .7.3.6.7-.3.9 3.9 8 5.7 9.9.6.7 2.2 2.5 3.6 4 1.3 1.6 4.2 4.2 6.4 5.8 2.2 1.7 4.2 3.3 4.5 3.6 1.2 1.5 15.6 7.5 20.5 8.6 6.4 1.4 24.1.8 29.6-1 7.4-2.4 17.2-7.3 20.2-9.9 1.3-1.2 3.5-3.2 4.8-4.3 4-3.6 7.9-8.2 7.9-9.3 0-.6.5-1.1 1-1.1.6 0 1-.7 1-1.5s.4-1.5.9-1.5c.8 0 1.7-2.1 2.6-5.8 1-4.2.9-4.2 42.5-4.2h39.9l-.1 15.2c0 8.4.1 17.3.1 19.8l.1 4.5h40.5V389h9.7c8.4 0 9.7-.2 10.1-1.8.3-.9.4-9.8.3-19.7l-.1-18h-70.2c-38.6 0-70.3-.2-70.6-.5-.2-.3-1.4-2.5-2.6-5-4.7-9.7-10.4-16.7-18.5-22.5-5.6-3.9-15.9-8.9-21-10.2-3.7-.9-24-1.1-27.3-.3zm26.4 28.6c6.4 3.3 12.7 9.8 15.6 16.2 3.1 6.8 3.1 19.8-.1 26.5-3.3 6.8-9.1 12.8-15.9 16.3-5.1 2.5-6.9 2.9-14.3 2.9-10.5 0-16.2-2.4-23.5-9.9-6.8-7-9.4-13.7-9.1-23.6.5-14.6 9.2-26.1 22.9-30.6 6.5-2.1 17.8-1.1 24.4 2.2z"/><path d="M87.1 359.7c-4.6 2.3-6.7 7.4-5.2 12.4 2.9 9.5 17 10.2 20.8 1 4-9.4-6.2-18.2-15.6-13.4z"/></svg>